<svg xmlns="http://www.w3.org/2000/svg" xmlns:xlink="http://www.w3.org/1999/xlink" viewBox="0,0,256,256" width="24px" height="24px"><g fill="#ff6000" fill-rule="nonzero" stroke="none" stroke-width="1" stroke-linecap="butt" stroke-linejoin="miter" stroke-miterlimit="10" stroke-dasharray="" stroke-dashoffset="0" font-family="none" font-weight="none" font-size="none" text-anchor="none" style="mix-blend-mode: normal"><g transform="scale(10.66667,10.66667)"><path d="M12.5,1c-0.20908,0.00003 -0.39606,0.13014 -0.46875,0.32617l-5.87695,11.14258c-0.10037,0.15905 -0.15384,0.34318 -0.1543,0.53125c0,0.55228 0.44772,1 1,1h5v8.5c0,0.27614 0.22386,0.5 0.5,0.5c0.18762,0.00022 0.35957,-0.10461 0.44531,-0.27148l5.91992,-11.22656l-0.00195,-0.00195c0.08873,-0.15175 0.13589,-0.32421 0.13672,-0.5c0,-0.55228 -0.44772,-1 -1,-1h-5v-8.5c0,-0.27614 -0.22386,-0.5 -0.5,-0.5z"></path></g></g></svg>