<svg width="24" height="25" viewBox="0 0 24 25" fill="none" xmlns="http://www.w3.org/2000/svg">
<path fill-rule="evenodd" clip-rule="evenodd" d="M13.6522 3.81056L11.426 6.57278L9.27795 9.17258L6.16033 13.0515H10.2451C10.7974 13.0515 11.2451 13.4993 11.2451 14.0515V21.1371L15.7231 15.5223L17.766 13.026L18.8463 11.6449H14.6522C14.0999 11.6449 13.6522 11.1972 13.6522 10.6449V3.81056ZM14.4747 1.41161C15.1548 1.65337 15.6522 2.3059 15.6522 3.13035V9.64493H19.2643C20.0675 9.64493 20.6026 10.1801 20.8336 10.7068C21.0581 11.219 21.0837 11.8967 20.7316 12.4705C20.7118 12.5028 20.6902 12.5338 20.6669 12.5636L19.3345 14.2669L19.3208 14.2841L17.2749 16.7841L12.5643 22.6906C12.5198 22.7464 12.4694 22.7973 12.4141 22.8424C11.838 23.3117 11.0838 23.4303 10.439 23.1939C9.76178 22.9456 9.24508 22.3115 9.24508 21.4659V15.0515H5.73547C4.93228 15.0515 4.39715 14.5164 4.16623 13.9897C3.94168 13.4774 3.91604 12.7998 4.26824 12.2259C4.29031 12.19 4.31464 12.1554 4.34107 12.1226L7.73175 7.90386L9.88024 5.30357L12.5208 2.02718C13.0041 1.35536 13.8097 1.17519 14.4747 1.41161Z" fill="white"/>
</svg>
