<svg xmlns="http://www.w3.org/2000/svg" xmlns:xlink="http://www.w3.org/1999/xlink" viewBox="0,0,256,256" width="24px" height="24px"><g transform="translate(51.2,51.2) scale(0.6,0.6)"><g fill="none" fill-rule="nonzero" stroke="#5B5B5B" stroke-width="42.66667" stroke-linecap="butt" stroke-linejoin="miter" stroke-miterlimit="10" stroke-dasharray="" stroke-dashoffset="0" font-family="none" font-weight="none" font-size="none" text-anchor="none" style="mix-blend-mode: normal"><path d="M52.81645,315.95888c-62.2841,0 -112.77533,-50.49124 -112.77533,-112.77533v-150.36711c0,-62.2841 50.49124,-112.77533 112.77533,-112.77533h150.36711c62.2841,0 112.77533,50.49124 112.77533,112.77533v150.36711c0,62.2841 -50.49124,112.77533 -112.77533,112.77533z" id="shape"></path></g><g fill="#ffffff" fill-rule="nonzero" stroke="none" stroke-width="none" stroke-linecap="butt" stroke-linejoin="none" stroke-miterlimit="10" stroke-dasharray="" stroke-dashoffset="0" font-family="none" font-weight="none" font-size="none" text-anchor="none" style="mix-blend-mode: normal"><path transform="translate(256,254.35829) rotate(180) scale(10.66667,10.66667)" d="M21,14.333c0,1.329 -1.481,2.122 -2.587,1.385l-6.413,-4.276l-6.413,4.275c-1.106,0.737 -2.587,-0.055 -2.587,-1.384c0,-0.556 0.278,-1.076 0.741,-1.385l7.15,-4.766c0.672,-0.448 1.547,-0.448 2.219,0l7.15,4.766c0.462,0.309 0.74,0.828 0.74,1.385z" id="strokeMainSVG" stroke="#ffffff" stroke-width="2" stroke-linejoin="round"></path><g transform="translate(256,254.35829) rotate(180) scale(10.66667,10.66667)" stroke="none" stroke-width="1" stroke-linejoin="miter"><path d="M20.26,12.948l-7.15,-4.766c-0.672,-0.448 -1.547,-0.448 -2.219,0l-7.15,4.766c-0.463,0.309 -0.741,0.829 -0.741,1.385v0c0,1.329 1.481,2.121 2.587,1.384l6.413,-4.275l6.413,4.276c1.106,0.737 2.587,-0.056 2.587,-1.385v0c0,-0.557 -0.278,-1.076 -0.74,-1.385z"></path></g></g></g></svg>