<svg width="24" height="24" viewBox="0 0 24 24" fill="none" xmlns="http://www.w3.org/2000/svg">
<path fill-rule="evenodd" clip-rule="evenodd" d="M1.24999 12C1.25 17.9371 6.06294 22.75 12 22.75C17.9371 22.75 22.75 17.9371 22.75 12C22.75 6.06294 17.9371 1.25 12 1.25C6.06293 1.25 1.24999 6.06294 1.24999 12Z" fill="var(--ion-color-medium)"/>
<path fill-rule="evenodd" clip-rule="evenodd" d="M12.6527 15.8047C12.2922 16.0651 11.7078 16.0651 11.3473 15.8047L8.27036 13.5825C7.90988 13.3222 7.90988 12.9001 8.27036 12.6397C8.63084 12.3794 9.2153 12.3794 9.57579 12.6397L11.0769 13.7239L11.0769 8.66667C11.0769 8.29848 11.4902 8 12 8C12.5098 8 12.9231 8.29848 12.9231 8.66667L12.9231 13.7239L14.4242 12.6397C14.7847 12.3794 15.3691 12.3794 15.7296 12.6397C16.0901 12.9001 16.0901 13.3222 15.7296 13.5825L12.6527 15.8047Z" fill="var(--ion-color-dark)" stroke="var(--ion-color-dark)" stroke-linecap="round" stroke-linejoin="round"/>
</svg>
