<svg width="24" height="24" viewBox="0 0 24 24" fill="none" xmlns="http://www.w3.org/2000/svg">
<path d="M12 2C6.5 2 2 6.5 2 12C2 17.5 6.5 22 12 22C17.5 22 22 17.5 22 12C22 6.5 17.5 2 12 2Z" fill="black"/>
<path d="M16 8.00001C15.7 7.70001 15.3 7.60001 15 7.80001L11.4 9.00001C10.2 9.40001 9.39997 10.2 8.99997 11.4L7.79997 15C7.69997 15.4 7.79997 15.7 7.99997 16C8.19997 16.2 8.39997 16.3 8.69997 16.3C8.79997 16.3 8.89997 16.3 8.99997 16.2L12.6 15C13.7 14.6 14.6 13.7 15 12.6L16.2 9.00001C16.3 8.70001 16.2 8.30001 16 8.00001Z" fill="white"/>
</svg>
