<svg width="48" height="48" viewBox="0 0 48 48" fill="none" xmlns="http://www.w3.org/2000/svg">
<path fill-rule="evenodd" clip-rule="evenodd" d="M24.3574 6.3574C19.1912 6.3574 15.3912 6.5296 12.7981 6.7148C9.4967 6.9506 6.9506 9.4967 6.7148 12.7981C6.5296 15.3912 6.3574 19.1912 6.3574 24.3574C6.3574 29.5236 6.5296 33.3236 6.7148 35.9167C6.9506 39.2181 9.4967 41.7642 12.7981 42C15.3912 42.1852 19.1912 42.3574 24.3574 42.3574C29.5236 42.3574 33.3236 42.1852 35.9167 42C39.2181 41.7642 41.7642 39.2181 42 35.9167C42.1852 33.3236 42.3574 29.5236 42.3574 24.3574C42.3574 19.1912 42.1852 15.3912 42 12.7981C41.7642 9.4967 39.2181 6.9506 35.9167 6.7148C33.3236 6.5296 29.5236 6.3574 24.3574 6.3574ZM28.3576 16.3574C28.3576 14.1483 30.1484 12.3574 32.3576 12.3574C34.5667 12.3574 36.3576 14.1483 36.3576 16.3574C36.3576 18.5665 34.5667 20.3574 32.3576 20.3574C30.1484 20.3574 28.3576 18.5665 28.3576 16.3574ZM39.2743 30.2471C37.8997 29 36.8284 28.0831 36.0119 27.4152C34.5185 26.1938 32.5141 26.0004 30.8754 27.0933C29.8117 27.8028 28.383 28.858 26.5467 30.4149C23.7552 27.7575 21.8069 26.0607 20.5059 24.9966C19.0125 23.7751 17.0081 23.5817 15.3694 24.6747C14.0111 25.5806 12.0568 27.0509 9.4179 29.4108C9.4832 32.0226 9.5933 34.1064 9.7073 35.703C9.8368 37.516 11.1989 38.8781 13.012 39.0076C15.5293 39.1874 19.2579 39.3574 24.3576 39.3574C29.4573 39.3574 33.1858 39.1874 35.7031 39.0076C37.5162 38.8781 38.8783 37.516 39.0078 35.703C39.1094 34.2806 39.2078 32.4716 39.2743 30.2471Z" fill="black"/>
</svg>
