<svg width="28" height="28" viewBox="0 0 24 24" fill="none" xmlns="http://www.w3.org/2000/svg">
<path fill-rule="evenodd" clip-rule="evenodd" d="M11.9525 1C7.13846 1 3.16463 4.82088 3.16463 9.56774V12.9971L1.52835 15.4815C0.164403 17.4825 1.58503 20 3.9389 20H20.0789C21.2283 20 22.1597 19.3154 22.6339 18.454C23.1112 17.5868 23.1855 16.4216 22.4702 15.4537L20.7403 12.9816V9.56774C20.7403 7.20465 19.7215 4.97441 18.1799 3.47638C18.1703 3.46711 18.1606 3.45803 18.1507 3.44914C16.5279 1.9935 14.3786 1 11.9525 1ZM9.00005 21C8.44777 21 8.00005 21.4477 8.00005 22C8.00005 22.5523 8.44777 23 9.00005 23H15.0001C15.5523 23 16.0001 22.5523 16.0001 22C16.0001 21.4477 15.5523 21 15.0001 21H9.00005Z" fill="#FFFFFF88"/>
</svg>
