<svg width="24" height="25" viewBox="0 0 24 25" fill="none" xmlns="http://www.w3.org/2000/svg">
<path fill-rule="evenodd" clip-rule="evenodd" d="M11.9571 4.31201C8.60313 4.31201 5.94808 6.90942 5.94808 9.98943V13.2798C5.94808 13.4784 5.88892 13.6725 5.77816 13.8374L4.15287 16.2567L4.1421 16.2724C3.95508 16.5397 3.97557 16.7837 4.07209 16.9592C4.1724 17.1417 4.39168 17.312 4.74491 17.312H19.271C19.5256 17.312 19.7723 17.1605 19.91 16.9152C20.0415 16.6809 20.0218 16.4677 19.8982 16.3059C19.8917 16.2974 19.8854 16.2888 19.8792 16.2801L18.1523 13.8607C18.0313 13.6912 17.9662 13.4881 17.9662 13.2798V9.98943C17.9662 8.44382 17.2811 6.96643 16.259 5.98512C15.0973 4.96918 13.6046 4.31201 11.9571 4.31201ZM3.94808 9.98943C3.94808 5.7146 7.59102 2.31201 11.9571 2.31201C14.1626 2.31201 16.1177 3.19748 17.595 4.49656C17.6049 4.50533 17.6147 4.5143 17.6244 4.52347C19.0323 5.86483 19.9662 7.86478 19.9662 9.98943V12.9595L21.4988 15.1066C22.1763 16.0065 22.1041 17.0925 21.6539 17.8943C21.2076 18.6893 20.3369 19.312 19.271 19.312H4.74491C2.58273 19.312 1.19404 17.01 2.49752 15.1343L3.94808 12.975V9.98943ZM7.99995 21.312C7.99995 20.7597 8.44767 20.312 8.99995 20.312H15C15.5522 20.312 16 20.7597 16 21.312C16 21.8643 15.5522 22.312 15 22.312H8.99995C8.44767 22.312 7.99995 21.8643 7.99995 21.312Z" fill="var(--ion-color-medium)"/>
</svg>
