<svg width="28" height="28" viewBox="0 0 28 28" fill="none" xmlns="http://www.w3.org/2000/svg">
<g clip-path="url(#clip0_298_279)">
<path d="M15.3447 23.4717C16.0127 23.4717 16.4873 22.918 16.8125 22.0742L22.6133 6.91309C22.7627 6.52637 22.8506 6.1748 22.8506 5.87598C22.8506 5.25195 22.4551 4.86523 21.8311 4.86523C21.541 4.86523 21.1895 4.95312 20.7939 5.10254L5.57129 10.9297C4.81543 11.2197 4.24414 11.6943 4.24414 12.3711C4.24414 13.2061 4.86816 13.5225 5.72949 13.7861L12.0752 15.6406L13.9121 21.916C14.1758 22.8125 14.4922 23.4717 15.3447 23.4717ZM12.5762 14.0498L7.05664 12.3623C6.9248 12.3271 6.88086 12.2832 6.88086 12.2305C6.88086 12.1689 6.91602 12.125 7.03027 12.0811L17.6035 8.04688C18.3506 7.75684 19.0801 7.40527 19.8623 7.04492C19.2295 7.55469 18.4648 8.16992 17.9375 8.69727L12.5762 14.0498ZM15.4941 20.8438C15.4326 20.8438 15.3887 20.791 15.3535 20.6592L13.666 15.1396L19.0186 9.77832C19.5371 9.25977 20.1787 8.46875 20.6797 7.82715C20.3193 8.62695 19.959 9.35645 19.6689 10.1123L15.6348 20.6768C15.5908 20.791 15.5469 20.8438 15.4941 20.8438Z" fill="#1C1C1E"/>
</g>
<defs>
<clipPath id="clip0_298_279">
<rect width="28" height="28" fill="white"/>
</clipPath>
</defs>
</svg>
