<svg xmlns="http://www.w3.org/2000/svg" xmlns:xlink="http://www.w3.org/1999/xlink" viewBox="0,0,256,256" width="48px" height="48px"><g fill="var(--ion-color-dark)" fill-rule="nonzero" stroke="none" stroke-width="1" stroke-linecap="butt" stroke-linejoin="miter" stroke-miterlimit="10" stroke-dasharray="" stroke-dashoffset="0" font-family="none" font-weight="none" font-size="none" text-anchor="none" style="mix-blend-mode: normal"><g transform="scale(5.33333,5.33333)"><path d="M15,5c-3.859,0 -7,3.14 -7,7c0,3.86 3.141,7 7,7c4.708,0 9.99208,-5.35094 10.58008,-5.96094c0.2795,-0.29 0.41992,-0.66419 0.41992,-1.03906c0,-0.37487 -0.14042,-0.74856 -0.41992,-1.03906c-0.588,-0.61 -5.87208,-5.96094 -10.58008,-5.96094zM26,12c0,3.86 3.141,7 7,7c4.708,0 9.99208,-5.35094 10.58008,-5.96094c0.559,-0.58 0.559,-1.49712 0,-2.07812c-0.588,-0.61 -5.87208,-5.96094 -10.58008,-5.96094c-3.859,0 -7,3.14 -7,7zM9.5,21c-1.93,0 -3.5,1.57 -3.5,3.5v9.5c0,5.514 4.486,10 10,10c2.542,0 4.859,-0.9603 6.625,-2.5293c-1.638,-2.052 -2.625,-4.6467 -2.625,-7.4707v-9.5c0,-1.328 0.47472,-2.548 1.26172,-3.5zM25.5,21c-1.93,0 -3.5,1.57 -3.5,3.5v9.5c0,5.514 4.486,10 10,10c5.514,0 10,-4.486 10,-10v-9.5c0,-1.93 -1.57,-3.5 -3.5,-3.5z"></path></g></g></svg>