<svg xmlns="http://www.w3.org/2000/svg" xmlns:xlink="http://www.w3.org/1999/xlink" viewBox="0,0,256,256" width="30px" height="30px"><g fill="var(--ion-color-dark)" fill-rule="nonzero" stroke="none" stroke-width="1" stroke-linecap="butt" stroke-linejoin="miter" stroke-miterlimit="10" stroke-dasharray="" stroke-dashoffset="0" font-family="none" font-weight="none" font-size="none" text-anchor="none" style="mix-blend-mode: normal"><g transform="scale(8.53333,8.53333)"><path d="M9,4c-2.761,0 -5,2.239 -5,5v1c0,2.761 2.239,5 5,5c2.761,0 5,-2.239 5,-5v-1c0,-2.761 -2.239,-5 -5,-5zM21,4c-2.761,0 -5,2.239 -5,5v1c0,2.761 2.239,5 5,5c2.761,0 5,-2.239 5,-5v-1c0,-2.761 -2.239,-5 -5,-5zM21,6c1.654,0 3,1.346 3,3v1c0,1.654 -1.346,3 -3,3c-1.654,0 -3,-1.346 -3,-3v-1c0,-1.654 1.346,-3 3,-3zM8.99805,17c-3.278,0 -7.48336,1.87406 -8.69336,3.91406c-0.747,1.26 -0.03559,3.08594 1.19141,3.08594h12h3.00781h12c1.227,0 1.93941,-1.82594 1.19141,-3.08594c-1.211,-2.04 -5.41927,-3.91406 -8.69727,-3.91406c-1.95039,0 -4.21714,0.67158 -5.99805,1.63867c-1.78141,-0.96753 -4.05101,-1.63867 -6.00195,-1.63867zM20.99805,19c2.77,0 6.20956,1.64059 6.97656,2.93359c0.011,0.018 0.01553,0.04141 0.01953,0.06641h-10.00195c-0.00924,-0.37229 -0.09872,-0.74886 -0.29883,-1.08594c-0.19687,-0.33192 -0.49534,-0.65493 -0.83398,-0.9707c1.28151,-0.55032 2.78758,-0.94336 4.13867,-0.94336z"></path></g></g></svg>