<svg width="24" height="24" viewBox="0 0 24 24" fill="none" xmlns="http://www.w3.org/2000/svg">
<path fill-rule="evenodd" clip-rule="evenodd" d="M18.6205 2.65348C20.2046 2.20086 21.6692 3.66545 21.2166 5.24959L17.217 19.2483C16.5503 21.5817 13.4334 22.02 12.149 19.9609L9.35159 15.4762C9.10954 15.0881 8.78196 14.7606 8.39391 14.5185L3.90916 11.7211C1.85011 10.4367 2.28841 7.31979 4.62182 6.6531L18.6205 2.65348ZM19.2226 4.57404C19.2124 4.5712 19.1969 4.56882 19.1699 4.57652L5.17126 8.57615C4.50457 8.76663 4.37934 9.65718 4.96764 10.0241L9.4524 12.8216C10.0992 13.225 10.6451 13.7709 11.0485 14.4177L13.846 18.9025C14.2129 19.4908 15.1035 19.3655 15.2939 18.6988L19.2936 4.70015C19.3013 4.6732 19.2989 4.65772 19.2961 4.64752C19.2923 4.63413 19.2836 4.61746 19.2681 4.60197C19.2526 4.58647 19.236 4.57777 19.2226 4.57404Z" fill="var(--ion-color-dark)"  stroke="var(--ion-color-dark)" stroke-width=".25"/>
<path fill-rule="evenodd" clip-rule="evenodd" d="M14.4351 9.43502C14.8257 9.82554 14.8257 10.4587 14.4351 10.8492L10.8996 14.3848C10.5091 14.7753 9.87592 14.7753 9.4854 14.3848C9.09487 13.9942 9.09487 13.3611 9.4854 12.9705L13.0209 9.43502C13.4115 9.04449 14.0446 9.04449 14.4351 9.43502Z" fill="var(--ion-color-dark)" stroke="var(--ion-color-dark)" stroke-width="1"/>
</svg>
