<svg xmlns="http://www.w3.org/2000/svg" xmlns:xlink="http://www.w3.org/1999/xlink" viewBox="0,0,256,256" width="100px" height="100px"><g transform="translate(25.6,25.6) scale(0.8,0.8)"><g fill="#ff6000" fill-rule="nonzero" stroke="none" stroke-width="1" stroke-linecap="butt" stroke-linejoin="miter" stroke-miterlimit="10" stroke-dasharray="" stroke-dashoffset="0" font-family="none" font-weight="none" font-size="none" text-anchor="none" style="mix-blend-mode: normal"><path d="M128,288c-88.36556,0 -160,-71.63444 -160,-160v0c0,-88.36556 71.63444,-160 160,-160v0c88.36556,0 160,71.63444 160,160v0c0,88.36556 -71.63444,160 -160,160z" id="shape"></path></g><g fill="#ffffff" fill-rule="nonzero" stroke="none" stroke-width="none" stroke-linecap="butt" stroke-linejoin="none" stroke-miterlimit="10" stroke-dasharray="" stroke-dashoffset="0" font-family="none" font-weight="none" font-size="none" text-anchor="none" style="mix-blend-mode: normal"><path transform="scale(5.12,5.12)" d="M26.40625,8.65625l9.90625,9.875c0.78516,0.78516 0.78516,2.05859 0,2.84375c-0.78516,0.78516 -2.05859,0.78516 -2.84375,0l-6.46875,-6.5v25.125c0.01172,0.72266 -0.36719,1.39063 -0.99219,1.75391c-0.62109,0.36719 -1.39453,0.36719 -2.01562,0c-0.625,-0.36328 -1.00391,-1.03125 -0.99219,-1.75391v-25.125l-6.46875,6.5c-0.78516,0.78516 -2.05859,0.78516 -2.84375,0c-0.78516,-0.78516 -0.78516,-2.05859 0,-2.84375l9.90625,-9.875l1.40625,-1.4375z" id="strokeMainSVG" stroke="#ffffff" stroke-width="2" stroke-linejoin="round"></path><g transform="scale(5.12,5.12)" stroke="none" stroke-width="1" stroke-linejoin="miter"><path d="M25,7.21875l-1.40625,1.4375l-9.90625,9.875c-0.78516,0.78516 -0.78516,2.05859 0,2.84375c0.78516,0.78516 2.05859,0.78516 2.84375,0l6.46875,-6.5v25.125c-0.01172,0.72266 0.36719,1.39063 0.99219,1.75391c0.62109,0.36719 1.39453,0.36719 2.01563,0c0.625,-0.36328 1.00391,-1.03125 0.99219,-1.75391v-25.125l6.46875,6.5c0.78516,0.78516 2.05859,0.78516 2.84375,0c0.78516,-0.78516 0.78516,-2.05859 0,-2.84375l-9.90625,-9.875z"></path></g></g></g></svg>