<svg width="24" height="24" viewBox="0 0 24 24" fill="none" xmlns="http://www.w3.org/2000/svg">
<path d="M21 12C21 8.22876 21 6.34315 19.8284 5.17157C18.6569 4 16.7712 4 13 4H10C7.19108 4 5.78661 4 4.77772 4.67412C4.34096 4.96596 3.96596 5.34096 3.67412 5.77772C3 6.78661 3 8.19108 3 11V11C3 13.8089 3 15.2134 3.67412 16.2223C3.96596 16.659 4.34096 17.034 4.77772 17.3259C5.78661 18 7.19108 18 10 18H13.2687C14.4497 18 15.0402 18 15.592 18.162C15.7988 18.2228 16.0005 18.3001 16.1949 18.3934C16.7134 18.6421 17.1524 19.0371 18.0302 19.8272V19.8272C19.1361 20.8225 19.6891 21.3202 20.1642 21.2411C20.3322 21.2131 20.4902 21.1427 20.6234 21.0366C21 20.7363 21 19.9924 21 18.5045V12Z" stroke="#888888" stroke-width="3" stroke-linecap="round"/>
</svg>
