<svg xmlns="http://www.w3.org/2000/svg" xmlns:xlink="http://www.w3.org/1999/xlink" viewBox="0,0,256,256" width="64px" height="64px"><g transform="translate(14.08,14.08) scale(0.89,0.89)"><g fill="#000000" fill-rule="nonzero" stroke="none" stroke-width="none" stroke-linecap="butt" stroke-linejoin="none" stroke-miterlimit="10" stroke-dasharray="" stroke-dashoffset="0" font-family="none" font-weight="none" font-size="none" text-anchor="none" style="mix-blend-mode: normal"><path opacity='50%' transform="scale(2,2)" d="M126.1,92.9c1.2,1.1 1.2,3 0,4.2l-20,20c-0.6,0.6 -1.4,0.9 -2.1,0.9c-0.7,0 -1.5,-0.3 -2.1,-0.9c-1.2,-1.1 -1.2,-3 0,-4.2l14.9,-14.9h-80.8c-1.7,0 -3,-1.3 -3,-3c0,-1.7 1.3,-3 3,-3h80.8l-14.8,-14.9c-1.2,-1.1 -1.2,-3 0,-4.2c1.1,-1.2 3,-1.2 4.2,0zM92,38h-80.8l14.9,14.9c1.2,1.1 1.2,3 0,4.2c-0.6,0.6 -1.4,0.9 -2.1,0.9c-0.7,0 -1.5,-0.3 -2.1,-0.9l-20,-20c-1.2,-1.1 -1.2,-3 0,-4.2l20,-20c1.1,-1.2 3,-1.2 4.2,0c1.2,1.1 1.2,3 0,4.2l-14.9,14.9h80.9c1.7,0 3,1.3 3,3c0,1.7 -1.4,3 -3.1,3z" id="strokeMainSVG" stroke="#000000" stroke-width="15" stroke-linejoin="round"></path><g transform="scale(2,2)" stroke="none" stroke-width="1" stroke-linejoin="miter"><path d="M106.2,72.9c-1.2,-1.2 -3.1,-1.2 -4.2,0c-1.2,1.2 -1.2,3.1 0,4.2l14.8,14.9h-80.8c-1.7,0 -3,1.3 -3,3c0,1.7 1.3,3 3,3h80.8l-14.9,14.9c-1.2,1.2 -1.2,3.1 0,4.2c0.6,0.6 1.4,0.9 2.1,0.9c0.7,0 1.5,-0.3 2.1,-0.9l20,-20c1.2,-1.2 1.2,-3.1 0,-4.2zM95.1,35c0,-1.7 -1.3,-3 -3,-3h-80.9l14.9,-14.9c1.2,-1.2 1.2,-3.1 0,-4.2c-1.2,-1.2 -3.1,-1.2 -4.2,0l-20,20c-1.2,1.2 -1.2,3.1 0,4.2l20,20c0.6,0.6 1.4,0.9 2.1,0.9c0.7,0 1.5,-0.3 2.1,-0.9c1.2,-1.2 1.2,-3.1 0,-4.2l-14.9,-14.9h80.8c1.7,0 3.1,-1.3 3.1,-3z"></path></g></g></g></svg>