<svg xmlns="http://www.w3.org/2000/svg" xmlns:xlink="http://www.w3.org/1999/xlink" viewBox="0,0,256,256" width="26px" height="26px"><g fill="#f45000" fill-rule="nonzero" stroke="none" stroke-width="1" stroke-linecap="butt" stroke-linejoin="miter" stroke-miterlimit="10" stroke-dasharray="" stroke-dashoffset="0" font-family="none" font-weight="none" font-size="none" text-anchor="none" style="mix-blend-mode: normal"><g transform="scale(9.84615,9.84615)"><path d="M5,11.30078c2.80078,-4.19922 7.19922,-8 7.39844,-8.10156c0.10156,-0.09766 0.40234,-0.19922 0.60156,-0.19922c0.19922,0 0.5,0.10156 0.69922,0.19922c0.19922,0.10156 4.60156,4 7.40234,8.10156c0.19922,0.30078 0.19922,0.69922 0.09766,1.09766c-0.19922,0.30078 -0.5,0.60156 -0.89844,0.60156h-3.69922c0,0 -0.5,8.69922 -0.80078,9.10156c-0.5,0.5 -1.69922,0.89844 -2.80078,0.89844c-1.10156,0 -2.19922,-0.39844 -2.60156,-0.89844c-0.19922,-0.40234 -0.89844,-9.10156 -0.89844,-9.10156h-3.69922c-0.40234,0 -0.69922,-0.19922 -0.90234,-0.60156c-0.19922,-0.29687 -0.09766,-0.69922 0.10156,-1.09766z"></path></g></g></svg>