<svg width="24" height="24" viewBox="0 0 24 24" fill="none" xmlns="http://www.w3.org/2000/svg">
<path fill-rule="evenodd" clip-rule="evenodd" d="M22.75 12C22.75 6.06294 17.9371 1.25 12 1.25C6.06294 1.25 1.25 6.06294 1.25 12C1.25 17.9371 6.06294 22.75 12 22.75C17.9371 22.75 22.75 17.9371 22.75 12Z" fill="var(--ion-color-medium)" fill-opacity="0.55"/>
<path fill-rule="evenodd" clip-rule="evenodd" d="M11.3473 8.19526C11.7078 7.93491 12.2922 7.93491 12.6527 8.19526L15.7296 10.4175C16.0901 10.6778 16.0901 11.0999 15.7296 11.3603C15.3692 11.6206 14.7847 11.6206 14.4242 11.3603L12.9231 10.2761L12.9231 15.3333C12.9231 15.7015 12.5098 16 12 16C11.4902 16 11.0769 15.7015 11.0769 15.3333L11.0769 10.2761L9.57579 11.3603C9.21531 11.6206 8.63085 11.6206 8.27036 11.3603C7.90988 11.0999 7.90988 10.6778 8.27036 10.4175L11.3473 8.19526Z" fill="var(--ion-color-dark)" stroke="var(--ion-color-dark)" stroke-linecap="round" stroke-linejoin="round"/>
</svg>
