<svg xmlns="http://www.w3.org/2000/svg" xmlns:xlink="http://www.w3.org/1999/xlink" viewBox="0,0,256,256" width="64px" height="64px"><g fill="#ffffff" fill-rule="nonzero" stroke="none" stroke-width="1" stroke-linecap="butt" stroke-linejoin="miter" stroke-miterlimit="10" stroke-dasharray="" stroke-dashoffset="0" font-family="none" font-weight="none" font-size="none" text-anchor="none" style="mix-blend-mode: normal"><g transform="scale(3.55556,3.55556)"><path d="M13,12c-3.314,0 -6,2.686 -6,6v36c0,3.314 2.686,6 6,6h46c3.314,0 6,-2.686 6,-6v-36c0,-3.314 -2.686,-6 -6,-6zM16,20h40c0.552,0 1,0.448 1,1v23.50586l-7.83398,-7.20117c-2.064,-1.897 -5.23983,-1.89223 -7.29883,0.00977l-9.00586,8.31641l-4.93359,-4.21875c-2.021,-1.729 -5.00062,-1.72233 -7.01562,0.01367l-5.91211,5.09375v-25.51953c0,-0.552 0.448,-1 1,-1zM27,24c-2.209,0 -4,1.791 -4,4c0,2.209 1.791,4 4,4c2.209,0 4,-1.791 4,-4c0,-2.209 -1.791,-4 -4,-4z"></path></g></g></svg>