<svg xmlns="http://www.w3.org/2000/svg" xmlns:xlink="http://www.w3.org/1999/xlink" viewBox="0,0,256,256" width="26px" height="26px">
    <g transform="translate(38.4,38.4) scale(0.7,0.7)">
        <!-- Circle Path -->
        <g fill="none" fill-rule="nonzero" stroke="#22DD22" stroke-width="29.53846" stroke-linecap="butt" stroke-linejoin="miter" stroke-miterlimit="10" stroke-dasharray="" stroke-dashoffset="0" font-family="none" font-weight="none" font-size="none" text-anchor="none" style="mix-blend-mode: normal">
            <path d="M45.5605,292.87899c-45.53008,0 -82.4395,-36.90942 -82.4395,-82.4395v-164.87899c0,-45.53008 36.90942,-82.4395 82.4395,-82.4395h164.87899c45.53008,0 82.4395,36.90942 82.4395,82.4395v164.87899c0,45.53008 -36.90942,82.4395 -82.4395,82.4395z" id="shape"></path>
        </g>
        <!-- Arrow Path -->
        <g fill="#22DD22" fill-rule="nonzero" stroke="none" stroke-width="1" stroke-linecap="butt" stroke-linejoin="miter" stroke-miterlimit="10" stroke-dasharray="" stroke-dashoffset="0" font-family="none" font-weight="none" font-size="none" text-anchor="none" style="mix-blend-mode: normal">
            <g transform="scale(9.84615,9.84615)">
                <path d="M14.97656,23.28125l1,-13.28125h3.14844c0.32813,0 0.57422,-0.16016 0.82031,-0.48047c0.08203,-0.32031 0.08203,-0.64062 -0.08203,-0.87891c-2.29687,-3.28125 -6.14453,-6.40234 -6.30859,-6.48047c-0.15625,-0.07812 -0.39062,-0.15234 -0.55469,-0.15625c-0.00391,0 -0.01172,-0.00391 -0.01562,-0.00391c-0.16406,0 -0.41016,0.07813 -0.49219,0.16016c-0.16406,0.07813 -4.02344,3.12109 -6.32031,6.48047c-0.16406,0.32031 -0.24609,0.64063 -0.08203,0.87891c0.16406,0.32031 0.41016,0.48047 0.73828,0.48047h3.14844l1,13.28125c0.32031,0.39844 1.125,0.71875 2.00781,0.71875c0.79688,0 1.67188,-0.23828 1.99219,-0.71875z"></path>
            </g>
        </g>
    </g>
</svg>