<svg width="24" height="24" viewBox="0 0 24 24" fill="none" xmlns="http://www.w3.org/2000/svg">
<path d="M18.48 16.725C15.72 16.725 13.44 14.5875 13.44 12C13.44 9.4125 15.72 7.275 18.48 7.275H21.96C21.72 4.9125 19.56 3 16.92 3H4.92C2.28 3 0 5.025 0 7.6125V16.3875C0 18.975 2.28 21 5.04 21H17.04C19.68 21 21.84 19.0875 22.08 16.725H18.48Z" fill="black"/>
<path d="M22.32 9.525H18.48C17.04 9.525 15.84 10.65 15.84 12C15.84 13.35 17.04 14.475 18.48 14.475H22.32C23.28 14.475 24 13.8 24 12.9V11.1C24 10.2 23.28 9.525 22.32 9.525Z" fill="black"/>
</svg>
