<svg xmlns="http://www.w3.org/2000/svg"  viewBox="0 0 50 50" fill='orange' width="50px" height="50px"><path d="M30.93 36.76C30.84 36.91 30.67 37 30.5 37h-6.9l-5.66-10.64c-.095-.184-.304-.265-.5-.244-.156.017-.304.098-.38.244L11.4 37H4.5c-.17 0-.34-.09-.43-.24-.09-.15-.09-.34-.01-.49l13-25c.084-.163.257-.245.432-.247.18-.002.361.08.448.247l13 25C31.02 36.42 31.02 36.61 30.93 36.76zM45.93 36.76C45.84 36.91 45.67 37 45.5 37H31.9c.15-.39.12-.82-.07-1.19L19.42 11.95C20.63 12.46 22.51 13 25 13c4.64 0 7.17-1.88 7.2-1.9.11-.09.26-.12.41-.09.14.03.27.13.33.26l13 25C46.02 36.42 46.02 36.61 45.93 36.76z"/></svg>